<?xml version="1.0" encoding="utf-8"?>
<!-- Generator: Adobe Illustrator 23.0.6, SVG Export Plug-In . SVG Version: 6.00 Build 0)  -->
<svg version="1.1" id="Слой_1" xmlns="http://www.w3.org/2000/svg" xmlns:xlink="http://www.w3.org/1999/xlink" x="0px" y="0px"
	 viewBox="0 0 51.3 85" style="enable-background:new 0 0 51.3 85;" xml:space="preserve">
<style type="text/css">
	.st0{clip-path:url(#SVGID_2_);}
	.st1{clip-path:url(#SVGID_4_);fill:#E84928;}
	.st2{clip-path:url(#SVGID_6_);}
	.st3{clip-path:url(#SVGID_8_);}
	.st4{clip-path:url(#SVGID_10_);}
	.st5{clip-path:url(#SVGID_12_);}
	.st6{clip-path:url(#SVGID_14_);}
	.st7{clip-path:url(#SVGID_16_);}
	.st8{clip-path:url(#SVGID_18_);fill:#573E91;}
</style>
<g>
	<g>
		<g>
			<defs>
				<rect id="SVGID_1_" x="0" width="51.3" height="85"/>
			</defs>
			<clipPath id="SVGID_2_">
				<use xlink:href="#SVGID_1_"  style="overflow:visible;"/>
			</clipPath>
			<g class="st0">
				<g>
					<g>
						<defs>
							<rect id="SVGID_3_" x="0" width="51.3" height="85"/>
						</defs>
						<clipPath id="SVGID_4_">
							<use xlink:href="#SVGID_3_"  style="overflow:visible;"/>
						</clipPath>
						<path class="st1" d="M40.9,85H6.2c-2.6,0-4-2.3-4-4.3c0-1.1,0.6-2.3,1.1-3l15.2-15.2L40.9,85z"/>
					</g>
				</g>
			</g>
		</g>
	</g>
	<g>
		<g>
			<defs>
				<rect id="SVGID_5_" x="0" width="51.3" height="85"/>
			</defs>
			<clipPath id="SVGID_6_">
				<use xlink:href="#SVGID_5_"  style="overflow:visible;"/>
			</clipPath>
			<g class="st2">
				<g>
					<g>
						<defs>
							<path id="SVGID_7_" d="M3.5,77.9c-0.9,0.8-1.1,1.8-1.1,3c0,2,1.6,4.3,4,4.3H41L18.7,62.8L3.5,77.9z"/>
						</defs>
						<clipPath id="SVGID_8_">
							<use xlink:href="#SVGID_7_"  style="overflow:visible;"/>
						</clipPath>
						<g class="st3">
							<g>
								<g>
									<g>
										<defs>
											<rect id="SVGID_9_" x="-12.2" y="48.6" width="52.4" height="46.8"/>
										</defs>
										<clipPath id="SVGID_10_">
											<use xlink:href="#SVGID_9_"  style="overflow:visible;"/>
										</clipPath>
										<g class="st4">
											<g>
												<g>
													<defs>
														<rect id="SVGID_11_" x="-12.2" y="48.6" width="52.3" height="46.8"/>
													</defs>
													<clipPath id="SVGID_12_">
														<use xlink:href="#SVGID_11_"  style="overflow:visible;"/>
													</clipPath>
													<g class="st5">
														<g>
															<g>
																<defs>
																	<rect id="SVGID_13_" x="-12.2" y="48.6" width="52.4" height="46.8"/>
																</defs>
																<clipPath id="SVGID_14_">
																	<use xlink:href="#SVGID_13_"  style="overflow:visible;"/>
																</clipPath>
																<g class="st6">
																</g>
															</g>
														</g>
													</g>
												</g>
											</g>
										</g>
									</g>
								</g>
							</g>
						</g>
					</g>
				</g>
			</g>
		</g>
	</g>
	<g>
		<g>
			<defs>
				<rect id="SVGID_15_" x="0" width="51.3" height="85"/>
			</defs>
			<clipPath id="SVGID_16_">
				<use xlink:href="#SVGID_15_"  style="overflow:visible;"/>
			</clipPath>
			<g class="st7">
				<g>
					<g>
						<defs>
							<rect id="SVGID_17_" x="0" width="51.3" height="85"/>
						</defs>
						<clipPath id="SVGID_18_">
							<use xlink:href="#SVGID_17_"  style="overflow:visible;"/>
						</clipPath>
						<path class="st8" d="M6.2,85c-2.6,0-5.9-2.1-5.9-6.2V32.2C0.2,25.9,0,21.4,4.5,17L21.3,0.1l30,30L3.5,77.9
							c-0.9,0.8-1.1,1.8-1.1,3C2.2,82.7,3.8,85,6.2,85"/>
					</g>
				</g>
			</g>
		</g>
	</g>
</g>
</svg>
